<svg xmlns="http://www.w3.org/2000/svg" viewBox="0 0 32 32">
  <!-- deleted scenes: a frame of film, amber on near-black -->
  <rect width="32" height="32" rx="7" fill="#0f0d0a"/>
  <rect x="9" y="3" width="14" height="26" rx="1.5" fill="#c9915c"/>
  <g fill="#0f0d0a">
    <!-- sprocket holes -->
    <rect x="10.6" y="5" width="2" height="3" rx="0.7"/>
    <rect x="10.6" y="10" width="2" height="3" rx="0.7"/>
    <rect x="10.6" y="15" width="2" height="3" rx="0.7"/>
    <rect x="10.6" y="20" width="2" height="3" rx="0.7"/>
    <rect x="10.6" y="25" width="2" height="2.5" rx="0.7"/>
    <rect x="19.4" y="5" width="2" height="3" rx="0.7"/>
    <rect x="19.4" y="10" width="2" height="3" rx="0.7"/>
    <rect x="19.4" y="15" width="2" height="3" rx="0.7"/>
    <rect x="19.4" y="20" width="2" height="3" rx="0.7"/>
    <rect x="19.4" y="25" width="2" height="2.5" rx="0.7"/>
    <!-- two frames, one deleted -->
    <rect x="14.1" y="5.5" width="3.8" height="9" rx="0.8"/>
    <rect x="14.1" y="17.5" width="3.8" height="9" rx="0.8"/>
  </g>
  <!-- the scene that made the cut -->
  <rect x="14.9" y="18.4" width="2.2" height="7.2" rx="0.5" fill="#c9915c" opacity="0.45"/>
</svg>
